<svg id="Layer_2" data-name="Layer 2" xmlns="http://www.w3.org/2000/svg" viewBox="0 0 558.095 463.12" style="width: 100%; height: 100%;">
  <g id="Layer_2-2" data-name="Layer 2">
    <g>
      <path d="m555.536,315.371c-15.243-76.866-104.547-138.296-121.965-218.4C401.914-4.938,297.57-21.05,229.765,23.209c-107.437,70.129,7.176,87.531-203.473,253.452-52.014,40.97-35.44,221.818,128.193,180.313,88.06-22.336,114.83-25.47,154.44-29.148,99.838-9.269,272.199,16.574,246.611-112.457Z" fill="#4fbf8b" opacity=".1"></path>
      <g>
        <path d="m369.941,381.105h-222.017c-20.926,0-38.809-15.075-42.35-35.699l-30.51-177.727h367.737l-30.51,177.727c-3.541,20.624-21.424,35.699-42.35,35.699Z" fill="#4fbf8b"></path>
        <g>
          <rect x="58.417" y="150.536" width="401.03" height="31.702" rx="15.851" ry="15.851" fill="#fff"></rect>
          <path d="m443.596,183.489H74.268c-9.43,0-17.101-7.671-17.101-17.101s7.671-17.101,17.101-17.101h369.328c9.43,0,17.101,7.671,17.101,17.101s-7.671,17.101-17.101,17.101Zm-369.328-31.702c-8.051,0-14.601,6.55-14.601,14.601s6.55,14.601,14.601,14.601h369.328c8.051,0,14.601-6.55,14.601-14.601s-6.55-14.601-14.601-14.601H74.268Z" fill="#262626"></path>
        </g>
        <g>
          <g>
            <g>
              <rect x="340.565" y="50.921" width="24.02" height="137.568" rx="12.01" ry="12.01" transform="translate(553.993 432.865) rotate(-141.501)" fill="#fff"></rect>
              <path d="m317.207,177.399c-2.983,0-5.858-1-8.229-2.885h0c-5.722-4.551-6.674-12.91-2.123-18.632l70.684-88.865c4.551-5.722,12.91-6.673,18.632-2.123,2.771,2.205,4.52,5.357,4.921,8.876.4,3.519-.593,6.984-2.798,9.756l-70.683,88.865c-2.205,2.772-5.357,4.519-8.877,4.92-.511.058-1.021.087-1.527.087Zm-6.672-4.841c2.25,1.79,5.063,2.596,7.917,2.27,2.855-.325,5.413-1.743,7.202-3.993l70.683-88.865c1.79-2.249,2.596-5.061,2.271-7.916-.325-2.856-1.743-5.414-3.993-7.203-4.644-3.695-11.427-2.92-15.118,1.723l-70.684,88.865c-3.693,4.643-2.921,11.426,1.723,15.119h0Z" fill="#262626"></path>
            </g>
            <g>
              <circle cx="316.43" cy="165.148" r="4.526" fill="#fff"></circle>
              <path d="m316.443,170.925c-.378,0-.758-.037-1.136-.112-3.123-.619-5.161-3.664-4.543-6.788h0c.301-1.514,1.172-2.82,2.454-3.678,1.283-.858,2.826-1.166,4.335-.865,3.123.619,5.161,3.664,4.543,6.788-.301,1.514-1.172,2.82-2.454,3.678-.962.643-2.068.977-3.199.977Zm-3.226-6.414c-.351,1.772.805,3.499,2.576,3.85.855.17,1.731-.004,2.458-.491.728-.486,1.222-1.227,1.392-2.085.352-1.771-.805-3.499-2.576-3.85-.855-.169-1.731.004-2.458.491-.728.486-1.222,1.227-1.392,2.085h0Z" fill="#262626"></path>
            </g>
          </g>
          <g>
            <g>
              <rect x="153.279" y="50.921" width="24.02" height="137.568" rx="12.01" ry="12.01" transform="translate(-38.586 128.913) rotate(-38.499)" fill="#fff"></rect>
              <path d="m200.644,177.392c-3.906,0-7.776-1.713-10.391-5l-70.684-88.865c-2.205-2.772-3.198-6.237-2.797-9.756s2.148-6.671,4.92-8.876c5.724-4.55,14.08-3.598,18.632,2.123l70.684,88.865c2.205,2.772,3.198,6.237,2.797,9.756s-2.148,6.671-4.921,8.876c-2.435,1.937-5.347,2.877-8.24,2.877Zm-70.708-112.875c-2.348,0-4.711.763-6.687,2.334-2.25,1.79-3.667,4.347-3.993,7.203-.325,2.855.48,5.667,2.27,7.916l70.684,88.865c3.694,4.644,10.475,5.416,15.119,1.723h0c2.25-1.79,3.667-4.347,3.993-7.203.325-2.856-.48-5.667-2.27-7.917l-70.683-88.865c-2.122-2.667-5.263-4.058-8.432-4.058Z" fill="#262626"></path>
            </g>
            <g>
              <circle cx="201.434" cy="165.148" r="4.526" fill="#fff"></circle>
              <path d="m201.422,170.925c-1.131,0-2.238-.334-3.199-.977-1.282-.858-2.154-2.164-2.454-3.677-.619-3.124,1.418-6.169,4.542-6.788,1.514-.301,3.052.008,4.335.865,1.282.858,2.153,2.164,2.454,3.677h0c.619,3.124-1.418,6.169-4.542,6.788-.378.075-.758.112-1.136.112Zm.02-9.054c-.214,0-.429.021-.644.063-1.771.351-2.927,2.078-2.576,3.85.17.858.665,1.599,1.392,2.085.728.487,1.599.661,2.458.491,1.771-.351,2.927-2.078,2.576-3.85h0c-.17-.858-.665-1.599-1.392-2.085-.545-.365-1.173-.554-1.814-.554Z" fill="#262626"></path>
            </g>
          </g>
        </g>
        <rect x="249.573" y="228.623" width="18.717" height="107.199" rx="9.359" ry="9.359" fill="#fff"></rect>
        <rect x="167.018" y="228.623" width="18.717" height="107.199" rx="9.359" ry="9.359" transform="translate(-41.268 30.451) rotate(-8.838)" fill="#fff"></rect>
        <rect x="334.062" y="228.623" width="18.717" height="107.199" rx="9.359" ry="9.359" transform="translate(639.402 613.858) rotate(-171.162)" fill="#fff"></rect>
        <g>
          <circle cx="411.372" cy="362.124" r="55.228" fill="#fff"></circle>
          <path d="m411.371,418.602c-31.142,0-56.478-25.336-56.478-56.478s25.336-56.479,56.478-56.479,56.479,25.336,56.479,56.479-25.336,56.478-56.479,56.478Zm0-110.456c-29.764,0-53.978,24.215-53.978,53.979s24.214,53.978,53.978,53.978,53.979-24.214,53.979-53.978-24.215-53.979-53.979-53.979Z" fill="#262626"></path>
        </g>
        <path d="m411.33,390.416c-5.667,0-10.143-2.422-13.428-7.267-3.287-4.845-4.93-11.856-4.93-21.035s1.642-16.106,4.93-20.781c3.285-4.675,7.761-7.012,13.428-7.012s10.143,2.352,13.429,7.054c3.285,4.704,4.93,11.616,4.93,20.739,0,9.178-1.644,16.19-4.93,21.035-3.286,4.845-7.763,7.267-13.429,7.267Zm0-7.649c1.303,0,2.507-.353,3.613-1.063,1.105-.708,2.053-1.883,2.847-3.527.793-1.643,1.415-3.768,1.869-6.375.453-2.605.68-5.835.68-9.688,0-3.796-.227-6.983-.68-9.562-.454-2.578-1.077-4.66-1.869-6.247-.794-1.585-1.742-2.705-2.847-3.357-1.106-.65-2.31-.978-3.613-.978s-2.507.327-3.612.978c-1.105.652-2.055,1.772-2.847,3.357-.794,1.587-1.417,3.669-1.869,6.247-.454,2.579-.68,5.766-.68,9.562,0,3.853.225,7.083.68,9.688.453,2.607,1.075,4.732,1.869,6.375.793,1.644,1.742,2.819,2.847,3.527,1.105.709,2.308,1.063,3.612,1.063Z" fill="#4fbf8b"></path>
      </g>
    </g>
  </g>
</svg>